<svg width="886" height="82" viewBox="0 0 886 82" fill="none" xmlns="http://www.w3.org/2000/svg">
<path d="M792.723 79.5V0H856.074C862.078 0 866.995 0.569336 870.825 1.70801C874.69 2.81217 877.536 4.79622 879.365 7.66016C881.229 10.4896 882.16 14.5094 882.16 19.7197C882.16 24.4124 881.073 28.2943 878.899 31.3652C876.726 34.4362 873.396 36.127 868.91 36.4375C874.776 37.0241 879.003 39.1289 881.591 42.752C884.179 46.3405 885.473 50.8607 885.473 56.3125C885.473 61.0397 884.921 64.9215 883.816 67.958C882.747 70.9945 880.935 73.3581 878.382 75.0488C875.828 76.7051 872.361 77.861 867.979 78.5166C863.631 79.1722 858.196 79.5 851.675 79.5H792.723ZM802.66 33.125H848.983C854.332 33.125 858.714 32.9352 862.13 32.5557C865.546 32.1761 868.082 31.0547 869.738 29.1914C871.395 27.3281 872.223 24.1709 872.223 19.7197C872.223 16.2347 871.722 13.6813 870.722 12.0596C869.756 10.4378 868.099 9.40267 865.753 8.9541C863.407 8.50553 860.18 8.28125 856.074 8.28125H802.66V33.125ZM802.66 71.2188H851.675C856.402 71.2188 860.301 71.098 863.372 70.8564C866.478 70.6149 868.91 70.0283 870.67 69.0967C872.464 68.165 873.724 66.6986 874.448 64.6973C875.173 62.6615 875.535 59.8665 875.535 56.3125C875.535 52.6549 874.845 49.8083 873.465 47.7725C872.119 45.7367 870.221 44.2702 867.771 43.373C865.356 42.4759 862.544 41.9238 859.335 41.7168C856.126 41.5098 852.675 41.4062 848.983 41.4062H802.66V71.2188Z" fill="#0F0F0F"/>
<path d="M673.473 79.5L719.848 0H733.098L779.473 79.5H767.879L757.941 61.2812H695.004L685.066 79.5H673.473ZM699.973 53H752.973L726.473 6.625L699.973 53Z" fill="#0F0F0F"/>
<path d="M593.973 79.5V0H603.91V71.2188H666.848V79.5H593.973Z" fill="#0F0F0F"/>
<path d="M564.16 79.5V0H574.098V79.5H564.16Z" fill="#0F0F0F"/>
<path d="M461.266 79.5V0H514.473C522.236 0 528.482 0.379557 533.209 1.13867C537.971 1.89779 541.576 3.17448 544.026 4.96875C546.476 6.72852 548.132 9.12663 548.995 12.1631C549.858 15.165 550.289 18.9089 550.289 23.3945V25.4648C550.289 29.7435 549.84 33.3838 548.943 36.3857C548.081 39.3532 546.39 41.7513 543.871 43.5801C541.352 45.4089 537.712 46.7546 532.95 47.6172C528.188 48.4453 521.926 48.8594 514.162 48.8594H471.203V79.5H461.266ZM540.352 23.3945C540.352 20.1165 540.041 17.4941 539.42 15.5273C538.799 13.5605 537.557 12.0768 535.693 11.0762C533.83 10.0755 531.052 9.41992 527.36 9.10938C523.668 8.76432 518.734 8.5918 512.558 8.5918H471.203V40.2676H512.558C518.734 40.2676 523.668 40.0778 527.36 39.6982C531.052 39.2842 533.83 38.5596 535.693 37.5244C537.557 36.4548 538.799 34.9538 539.42 33.0215C540.041 31.0547 540.352 28.5358 540.352 25.4648V23.3945Z" fill="#0F0F0F"/>
<path d="M358.164 79.5V0H411.371C419.135 0 425.38 0.379557 430.107 1.13867C434.869 1.89779 438.475 3.17448 440.925 4.96875C443.375 6.72852 445.031 9.12663 445.894 12.1631C446.756 15.165 447.188 18.9089 447.188 23.3945V25.4648C447.188 29.7435 446.739 33.3838 445.842 36.3857C444.979 39.3532 443.288 41.7513 440.77 43.5801C438.251 45.4089 434.61 46.7546 429.849 47.6172C425.087 48.4453 418.824 48.8594 411.061 48.8594H368.102V79.5H358.164ZM437.25 23.3945C437.25 20.1165 436.939 17.4941 436.318 15.5273C435.697 13.5605 434.455 12.0768 432.592 11.0762C430.729 10.0755 427.951 9.41992 424.259 9.10938C420.567 8.76432 415.632 8.5918 409.456 8.5918H368.102V40.2676H409.456C415.632 40.2676 420.567 40.0778 424.259 39.6982C427.951 39.2842 430.729 38.5596 432.592 37.5244C434.455 36.4548 435.697 34.9538 436.318 33.0215C436.939 31.0547 437.25 28.5358 437.25 25.4648V23.3945Z" fill="#0F0F0F"/>
<path d="M212.828 79.5V0H227.631L275.714 64.8525L323.072 0H337.875V79.5H327.938V9.00586L280.476 74.2725H271.47L222.766 9.00586V79.5H212.828Z" fill="#0F0F0F"/>
<path d="M138.452 81.1562C130.688 81.1562 124.305 80.6214 119.302 79.5518C114.299 78.5166 110.382 76.5843 107.553 73.7549C104.758 70.9255 102.791 66.8538 101.652 61.54C100.548 56.2262 99.9961 49.3079 99.9961 40.7852V0H109.934V40.7852C109.934 46.651 110.141 51.5163 110.555 55.3809C110.969 59.2454 111.745 62.3337 112.884 64.6455C114.022 66.9574 115.644 68.6826 117.749 69.8213C119.888 70.96 122.649 71.7018 126.03 72.0469C129.412 72.3919 133.552 72.5645 138.452 72.5645H157.188C162.123 72.5645 166.263 72.3919 169.61 72.0469C172.992 71.7018 175.735 70.96 177.84 69.8213C179.979 68.6826 181.618 66.9574 182.757 64.6455C183.896 62.3337 184.672 59.2454 185.086 55.3809C185.5 51.5163 185.707 46.651 185.707 40.7852V0H195.645V40.7852C195.645 49.3079 195.075 56.2262 193.937 61.54C192.832 66.8538 190.866 70.9255 188.036 73.7549C185.241 76.5843 181.342 78.5166 176.339 79.5518C171.336 80.6214 164.952 81.1562 157.188 81.1562H138.452Z" fill="#0F0F0F"/>
<path d="M0 79.5V0H53.207C60.9707 0 67.2161 0.379557 71.9434 1.13867C76.7051 1.89779 80.3109 3.17448 82.7607 4.96875C85.2106 6.72852 86.8669 9.12663 87.7295 12.1631C88.5921 15.165 89.0234 18.9089 89.0234 23.3945V25.4648C89.0234 29.7435 88.5749 33.3838 87.6777 36.3857C86.8151 39.3532 85.1243 41.7513 82.6055 43.5801C80.0866 45.4089 76.4463 46.7546 71.6846 47.6172C66.9229 48.4453 60.6602 48.8594 52.8965 48.8594H9.9375V79.5H0ZM79.0859 23.3945C79.0859 20.1165 78.7754 17.4941 78.1543 15.5273C77.5332 13.5605 76.291 12.0768 74.4277 11.0762C72.5645 10.0755 69.7868 9.41992 66.0947 9.10938C62.4027 8.76432 57.4684 8.5918 51.292 8.5918H9.9375V40.2676H51.292C57.4684 40.2676 62.4027 40.0778 66.0947 39.6982C69.7868 39.2842 72.5645 38.5596 74.4277 37.5244C76.291 36.4548 77.5332 34.9538 78.1543 33.0215C78.7754 31.0547 79.0859 28.5358 79.0859 25.4648V23.3945Z" fill="#0F0F0F"/>
</svg>
