<svg xmlns="http://www.w3.org/2000/svg" xmlns:xlink="http://www.w3.org/1999/xlink" width="1200" zoomAndPan="magnify" viewBox="0 0 900 135.000003" height="180" preserveAspectRatio="xMidYMid meet" version="1.0"><defs><g/><clipPath id="91fbf39d7a"><path d="M 831 39 L 896.691406 39 L 896.691406 133 L 831 133 Z M 831 39 " clip-rule="nonzero"/></clipPath></defs><g fill="#000000" fill-opacity="1"><g transform="translate(-3.700731, 130.074555)"><g><path d="M 49.5 2.1875 C 41.21875 2.1875 33.515625 0.601562 26.390625 -2.5625 C 19.265625 -5.726562 13.085938 -10.109375 7.859375 -15.703125 L 16.078125 -25.015625 C 20.453125 -20.273438 25.5625 -16.535156 31.40625 -13.796875 C 37.257812 -11.054688 43.347656 -9.6875 49.671875 -9.6875 C 57.835938 -9.6875 64.265625 -11.570312 68.953125 -15.34375 C 73.640625 -19.113281 75.984375 -24.164062 75.984375 -30.5 C 75.984375 -34.519531 75.128906 -37.867188 73.421875 -40.546875 C 71.710938 -43.222656 69.519531 -45.351562 66.84375 -46.9375 C 64.164062 -48.519531 60.390625 -50.40625 55.515625 -52.59375 L 38.171875 -60.265625 C 31.109375 -63.316406 25.289062 -67.210938 20.71875 -71.953125 C 16.15625 -76.703125 13.875 -83.035156 13.875 -90.953125 C 13.875 -96.921875 15.457031 -102.28125 18.625 -107.03125 C 21.789062 -111.78125 26.203125 -115.492188 31.859375 -118.171875 C 37.523438 -120.847656 43.832031 -122.1875 50.78125 -122.1875 C 57.71875 -122.1875 64.195312 -120.847656 70.21875 -118.171875 C 76.25 -115.492188 81.394531 -111.898438 85.65625 -107.390625 L 78.359375 -98.8125 C 70.441406 -106.476562 61.25 -110.3125 50.78125 -110.3125 C 43.71875 -110.3125 38.050781 -108.609375 33.78125 -105.203125 C 29.519531 -101.796875 27.390625 -97.289062 27.390625 -91.6875 C 27.390625 -87.914062 28.363281 -84.75 30.3125 -82.1875 C 32.257812 -79.632812 34.507812 -77.625 37.0625 -76.15625 C 39.625 -74.695312 43.097656 -72.992188 47.484375 -71.046875 L 64.84375 -63.375 C 72.75 -60.082031 78.863281 -56 83.1875 -51.125 C 87.507812 -46.257812 89.671875 -39.691406 89.671875 -31.421875 C 89.671875 -25.085938 88.023438 -19.363281 84.734375 -14.25 C 81.453125 -9.132812 76.765625 -5.113281 70.671875 -2.1875 C 64.585938 0.726562 57.53125 2.1875 49.5 2.1875 Z M 49.5 2.1875 "/></g></g></g><g fill="#000000" fill-opacity="1"><g transform="translate(88.899352, 130.074555)"><g><path d="M 42.375 2.1875 C 33.601562 2.1875 27.332031 -0.304688 23.5625 -5.296875 C 19.789062 -10.285156 17.90625 -17.410156 17.90625 -26.671875 L 17.90625 -77.625 L 4.5625 -77.625 L 4.5625 -87.671875 L 18.453125 -88.578125 L 20.09375 -113.609375 L 31.234375 -113.609375 L 31.234375 -88.578125 L 55.515625 -88.578125 L 55.515625 -77.625 L 31.234375 -77.625 L 31.234375 -26.296875 C 31.234375 -20.453125 32.296875 -16.066406 34.421875 -13.140625 C 36.554688 -10.222656 40.179688 -8.765625 45.296875 -8.765625 C 47.847656 -8.765625 51.253906 -9.554688 55.515625 -11.140625 L 58.265625 -1.09375 C 51.691406 1.09375 46.394531 2.1875 42.375 2.1875 Z M 42.375 2.1875 "/></g></g></g><g fill="#000000" fill-opacity="1"><g transform="translate(146.979882, 130.074555)"><g><path d="M 83.09375 -49.3125 C 83.09375 -46.144531 82.910156 -43.46875 82.546875 -41.28125 L 21.375 -41.28125 C 21.976562 -30.925781 25.171875 -22.882812 30.953125 -17.15625 C 36.742188 -11.4375 43.835938 -8.578125 52.234375 -8.578125 C 60.023438 -8.578125 67.515625 -10.953125 74.703125 -15.703125 L 79.625 -6.9375 C 75.25 -4.132812 70.742188 -1.910156 66.109375 -0.265625 C 61.484375 1.367188 56.3125 2.1875 50.59375 2.1875 C 42.800781 2.1875 35.707031 0.332031 29.3125 -3.375 C 22.914062 -7.09375 17.859375 -12.484375 14.140625 -19.546875 C 10.429688 -26.609375 8.578125 -34.828125 8.578125 -44.203125 C 8.578125 -53.453125 10.429688 -61.609375 14.140625 -68.671875 C 17.859375 -75.734375 22.757812 -81.179688 28.84375 -85.015625 C 34.9375 -88.847656 41.394531 -90.765625 48.21875 -90.765625 C 59.175781 -90.765625 67.726562 -87.082031 73.875 -79.71875 C 80.019531 -72.351562 83.09375 -62.21875 83.09375 -49.3125 Z M 71.234375 -50.953125 C 71.234375 -60.328125 69.222656 -67.507812 65.203125 -72.5 C 61.179688 -77.5 55.582031 -80 48.40625 -80 C 41.820312 -80 35.972656 -77.5 30.859375 -72.5 C 25.753906 -67.507812 22.710938 -60.328125 21.734375 -50.953125 Z M 71.234375 -50.953125 "/></g></g></g><g fill="#000000" fill-opacity="1"><g transform="translate(236.840355, 130.074555)"><g><path d="M 15.53125 -88.578125 L 28.671875 -88.578125 L 28.671875 0 L 15.53125 0 Z M 22.28125 -107.578125 C 19.601562 -107.578125 17.410156 -108.425781 15.703125 -110.125 C 14.003906 -111.832031 13.15625 -114.085938 13.15625 -116.890625 C 13.15625 -119.566406 14.003906 -121.726562 15.703125 -123.375 C 17.410156 -125.019531 19.601562 -125.84375 22.28125 -125.84375 C 24.957031 -125.84375 27.144531 -125.019531 28.84375 -123.375 C 30.550781 -121.726562 31.40625 -119.566406 31.40625 -116.890625 C 31.40625 -114.085938 30.550781 -111.832031 28.84375 -110.125 C 27.144531 -108.425781 24.957031 -107.578125 22.28125 -107.578125 Z M 22.28125 -107.578125 "/></g></g></g><g fill="#000000" fill-opacity="1"><g transform="translate(281.039988, 130.074555)"><g><path d="M 83.09375 -49.3125 C 83.09375 -46.144531 82.910156 -43.46875 82.546875 -41.28125 L 21.375 -41.28125 C 21.976562 -30.925781 25.171875 -22.882812 30.953125 -17.15625 C 36.742188 -11.4375 43.835938 -8.578125 52.234375 -8.578125 C 60.023438 -8.578125 67.515625 -10.953125 74.703125 -15.703125 L 79.625 -6.9375 C 75.25 -4.132812 70.742188 -1.910156 66.109375 -0.265625 C 61.484375 1.367188 56.3125 2.1875 50.59375 2.1875 C 42.800781 2.1875 35.707031 0.332031 29.3125 -3.375 C 22.914062 -7.09375 17.859375 -12.484375 14.140625 -19.546875 C 10.429688 -26.609375 8.578125 -34.828125 8.578125 -44.203125 C 8.578125 -53.453125 10.429688 -61.609375 14.140625 -68.671875 C 17.859375 -75.734375 22.757812 -81.179688 28.84375 -85.015625 C 34.9375 -88.847656 41.394531 -90.765625 48.21875 -90.765625 C 59.175781 -90.765625 67.726562 -87.082031 73.875 -79.71875 C 80.019531 -72.351562 83.09375 -62.21875 83.09375 -49.3125 Z M 71.234375 -50.953125 C 71.234375 -60.328125 69.222656 -67.507812 65.203125 -72.5 C 61.179688 -77.5 55.582031 -80 48.40625 -80 C 41.820312 -80 35.972656 -77.5 30.859375 -72.5 C 25.753906 -67.507812 22.710938 -60.328125 21.734375 -50.953125 Z M 71.234375 -50.953125 "/></g></g></g><g fill="#000000" fill-opacity="1"><g transform="translate(370.900461, 130.074555)"><g><path d="M 15.53125 -88.578125 L 26.484375 -88.578125 L 27.578125 -72.328125 L 28.125 -72.328125 C 31.164062 -78.046875 34.878906 -82.546875 39.265625 -85.828125 C 43.648438 -89.117188 48.335938 -90.765625 53.328125 -90.765625 C 56.859375 -90.765625 59.90625 -90.160156 62.46875 -88.953125 L 59.90625 -77.25 C 56.738281 -78.226562 53.9375 -78.71875 51.5 -78.71875 C 47.363281 -78.71875 43.253906 -77.007812 39.171875 -73.59375 C 35.097656 -70.1875 31.597656 -64.894531 28.671875 -57.71875 L 28.671875 0 L 15.53125 0 Z M 15.53125 -88.578125 "/></g></g></g><g fill="#000000" fill-opacity="1"><g transform="translate(432.999139, 130.074555)"><g><path d="M 15.53125 -88.578125 L 26.484375 -88.578125 L 27.578125 -75.4375 L 28.125 -75.4375 C 37.5 -85.65625 46.691406 -90.765625 55.703125 -90.765625 C 68.242188 -90.765625 76.398438 -85.046875 80.171875 -73.609375 C 85.285156 -79.203125 90.21875 -83.457031 94.96875 -86.375 C 99.71875 -89.300781 104.585938 -90.765625 109.578125 -90.765625 C 127.484375 -90.765625 136.4375 -79.257812 136.4375 -56.25 L 136.4375 0 L 123.09375 0 L 123.09375 -54.609375 C 123.09375 -63.128906 121.691406 -69.335938 118.890625 -73.234375 C 116.097656 -77.128906 111.71875 -79.078125 105.75 -79.078125 C 98.8125 -79.078125 91.078125 -74.332031 82.546875 -64.84375 L 82.546875 0 L 69.21875 0 L 69.21875 -54.609375 C 69.21875 -63.015625 67.816406 -69.191406 65.015625 -73.140625 C 62.210938 -77.097656 57.890625 -79.078125 52.046875 -79.078125 C 45.109375 -79.078125 37.316406 -74.332031 28.671875 -64.84375 L 28.671875 0 L 15.53125 0 Z M 15.53125 -88.578125 "/></g></g></g><g fill="#000000" fill-opacity="1"><g transform="translate(583.679796, 130.074555)"><g><path d="M 35.609375 2.1875 C 28.066406 2.1875 21.859375 0 16.984375 -4.375 C 12.117188 -8.757812 9.6875 -14.910156 9.6875 -22.828125 C 9.6875 -32.453125 14.066406 -39.847656 22.828125 -45.015625 C 31.597656 -50.191406 45.601562 -53.816406 64.84375 -55.890625 C 64.84375 -62.828125 63.410156 -68.515625 60.546875 -72.953125 C 57.679688 -77.398438 52.78125 -79.625 45.84375 -79.625 C 37.4375 -79.625 28.488281 -76.398438 19 -69.953125 L 13.703125 -79.078125 C 25.390625 -86.867188 36.832031 -90.765625 48.03125 -90.765625 C 58.257812 -90.765625 65.804688 -87.566406 70.671875 -81.171875 C 75.546875 -74.785156 77.984375 -65.992188 77.984375 -54.796875 L 77.984375 0 L 67.03125 0 L 65.9375 -10.78125 L 65.390625 -10.78125 C 54.910156 -2.132812 44.984375 2.1875 35.609375 2.1875 Z M 39.078125 -8.578125 C 43.347656 -8.578125 47.519531 -9.582031 51.59375 -11.59375 C 55.675781 -13.601562 60.09375 -16.738281 64.84375 -21 L 64.84375 -46.9375 C 49.613281 -45.113281 38.800781 -42.3125 32.40625 -38.53125 C 26.019531 -34.757812 22.828125 -29.769531 22.828125 -23.5625 C 22.828125 -18.570312 24.347656 -14.828125 27.390625 -12.328125 C 30.441406 -9.828125 34.335938 -8.578125 39.078125 -8.578125 Z M 39.078125 -8.578125 "/></g></g></g><g fill="#000000" fill-opacity="1"><g transform="translate(675.184053, 130.074555)"><g><path d="M 15.53125 -88.578125 L 26.484375 -88.578125 L 27.578125 -72.328125 L 28.125 -72.328125 C 31.164062 -78.046875 34.878906 -82.546875 39.265625 -85.828125 C 43.648438 -89.117188 48.335938 -90.765625 53.328125 -90.765625 C 56.859375 -90.765625 59.90625 -90.160156 62.46875 -88.953125 L 59.90625 -77.25 C 56.738281 -78.226562 53.9375 -78.71875 51.5 -78.71875 C 47.363281 -78.71875 43.253906 -77.007812 39.171875 -73.59375 C 35.097656 -70.1875 31.597656 -64.894531 28.671875 -57.71875 L 28.671875 0 L 15.53125 0 Z M 15.53125 -88.578125 "/></g></g></g><g fill="#000000" fill-opacity="1"><g transform="translate(737.282777, 130.074555)"><g><path d="M 15.53125 -130.40625 L 28.484375 -130.40625 L 28.484375 -40.1875 L 29.046875 -40.1875 L 68.3125 -88.578125 L 83.09375 -88.578125 L 53.515625 -53.140625 L 87.125 0 L 72.6875 0 L 45.84375 -43.828125 L 28.484375 -23.375 L 28.484375 0 L 15.53125 0 Z M 15.53125 -130.40625 "/></g></g></g><g clip-path="url(#91fbf39d7a)"><g fill="#000000" fill-opacity="1"><g transform="translate(826.230047, 130.074555)"><g><path d="M 38.171875 2.1875 C 32.085938 2.1875 26.179688 1.0625 20.453125 -1.1875 C 14.734375 -3.4375 9.679688 -6.390625 5.296875 -10.046875 L 12.046875 -19 C 16.429688 -15.46875 20.691406 -12.785156 24.828125 -10.953125 C 28.972656 -9.128906 33.601562 -8.21875 38.71875 -8.21875 C 44.5625 -8.21875 49.066406 -9.617188 52.234375 -12.421875 C 55.398438 -15.222656 56.984375 -18.753906 56.984375 -23.015625 C 56.984375 -27.273438 55.1875 -30.679688 51.59375 -33.234375 C 48 -35.796875 42.914062 -38.234375 36.34375 -40.546875 C 27.945312 -43.585938 21.375 -46.90625 16.625 -50.5 C 11.875 -54.09375 9.5 -59.238281 9.5 -65.9375 C 9.5 -73.113281 12.207031 -79.046875 17.625 -83.734375 C 23.039062 -88.421875 30.378906 -90.765625 39.640625 -90.765625 C 44.628906 -90.765625 49.4375 -89.851562 54.0625 -88.03125 C 58.6875 -86.207031 62.828125 -83.832031 66.484375 -80.90625 L 60.09375 -72.328125 C 56.5625 -74.878906 53.210938 -76.820312 50.046875 -78.15625 C 46.878906 -79.5 43.410156 -80.171875 39.640625 -80.171875 C 34.035156 -80.171875 29.769531 -78.863281 26.84375 -76.25 C 23.925781 -73.632812 22.46875 -70.4375 22.46875 -66.65625 C 22.46875 -63.976562 23.347656 -61.664062 25.109375 -59.71875 C 26.878906 -57.769531 29.039062 -56.21875 31.59375 -55.0625 C 34.15625 -53.90625 37.75 -52.414062 42.375 -50.59375 C 48.582031 -48.28125 53.453125 -46.207031 56.984375 -44.375 C 60.515625 -42.550781 63.554688 -39.960938 66.109375 -36.609375 C 68.671875 -33.265625 69.953125 -28.976562 69.953125 -23.75 C 69.953125 -19 68.703125 -14.644531 66.203125 -10.6875 C 63.710938 -6.726562 60.0625 -3.59375 55.25 -1.28125 C 50.4375 1.03125 44.742188 2.1875 38.171875 2.1875 Z M 38.171875 2.1875 "/></g></g></g></g></svg>