<svg xmlns="http://www.w3.org/2000/svg" xmlns:xlink="http://www.w3.org/1999/xlink" width="400" zoomAndPan="magnify" viewBox="0 0 300 74.999997" height="100" preserveAspectRatio="xMidYMid meet" version="1.0"><defs><g/></defs><path stroke-linecap="butt" transform="matrix(1.169779, 0, 0, 1.169779, 1.369901, 9.918327)" fill="none" stroke-linejoin="miter" d="M 0.00101994 20.730108 L 4.809621 20.730108 C 7.467709 20.730108 9.621562 22.883961 9.621562 25.542049 L 9.621562 27.735974 C 9.621562 29.592628 10.359549 31.375818 11.671896 32.688165 C 12.987583 34.000512 14.767433 34.738499 16.627427 34.738499 L 18.557546 34.738499 C 20.928454 34.738499 23.202521 33.796815 24.878853 32.120483 C 26.555185 30.444151 27.49687 28.173423 27.49687 25.802515 L 27.49687 25.017778 C 27.49687 22.64687 26.555185 20.372803 24.878853 18.696471 C 23.202521 17.020139 20.928454 16.078455 18.557546 16.078455 L 16.410372 16.078455 C 14.610486 16.078455 12.884064 15.363843 11.611789 14.091567 C 10.336174 12.815952 9.621562 11.089531 9.621562 9.289644 C 9.621562 7.489758 10.336174 5.763337 11.611789 4.487722 C 12.884064 3.215446 14.610486 2.500834 16.410372 2.500834 L 27.49687 2.500834 " stroke="#da7800" stroke-width="5" stroke-opacity="1" stroke-miterlimit="4"/><g fill="#000000" fill-opacity="1"><g transform="translate(39.631214, 53.299591)"><g><path d="M 28.640625 -27.5 L 28.640625 0 L 22.953125 0 L 22.953125 -3.25 C 22.054688 -2.113281 20.882812 -1.21875 19.4375 -0.5625 C 17.988281 0.0820312 16.453125 0.40625 14.828125 0.40625 C 12.660156 0.40625 10.71875 -0.0390625 9 -0.9375 C 7.289062 -1.84375 5.945312 -3.175781 4.96875 -4.9375 C 3.988281 -6.695312 3.5 -8.828125 3.5 -11.328125 L 3.5 -27.5 L 9.140625 -27.5 L 9.140625 -12.171875 C 9.140625 -9.710938 9.753906 -7.828125 10.984375 -6.515625 C 12.210938 -5.203125 13.890625 -4.546875 16.015625 -4.546875 C 18.148438 -4.546875 19.835938 -5.203125 21.078125 -6.515625 C 22.328125 -7.828125 22.953125 -9.710938 22.953125 -12.171875 L 22.953125 -27.5 Z M 28.640625 -27.5 "/></g></g></g><g fill="#000000" fill-opacity="1"><g transform="translate(72.015217, 53.299591)"><g><path d="M 9.4375 -23.453125 C 10.394531 -24.722656 11.707031 -25.789062 13.375 -26.65625 C 15.039062 -27.519531 16.921875 -27.953125 19.015625 -27.953125 C 21.410156 -27.953125 23.597656 -27.359375 25.578125 -26.171875 C 27.554688 -24.992188 29.109375 -23.335938 30.234375 -21.203125 C 31.367188 -19.078125 31.9375 -16.632812 31.9375 -13.875 C 31.9375 -11.113281 31.367188 -8.640625 30.234375 -6.453125 C 29.109375 -4.273438 27.554688 -2.578125 25.578125 -1.359375 C 23.597656 -0.148438 21.410156 0.453125 19.015625 0.453125 C 16.921875 0.453125 15.054688 0.03125 13.421875 -0.8125 C 11.796875 -1.664062 10.46875 -2.726562 9.4375 -4 L 9.4375 13.078125 L 3.75 13.078125 L 3.75 -27.5 L 9.4375 -27.5 Z M 26.15625 -13.875 C 26.15625 -15.769531 25.765625 -17.40625 24.984375 -18.78125 C 24.203125 -20.164062 23.171875 -21.210938 21.890625 -21.921875 C 20.609375 -22.640625 19.234375 -23 17.765625 -23 C 16.335938 -23 14.984375 -22.632812 13.703125 -21.90625 C 12.421875 -21.175781 11.390625 -20.113281 10.609375 -18.71875 C 9.828125 -17.320312 9.4375 -15.675781 9.4375 -13.78125 C 9.4375 -11.875 9.828125 -10.210938 10.609375 -8.796875 C 11.390625 -7.390625 12.421875 -6.316406 13.703125 -5.578125 C 14.984375 -4.847656 16.335938 -4.484375 17.765625 -4.484375 C 19.234375 -4.484375 20.609375 -4.859375 21.890625 -5.609375 C 23.171875 -6.359375 24.203125 -7.445312 24.984375 -8.875 C 25.765625 -10.3125 26.15625 -11.976562 26.15625 -13.875 Z M 26.15625 -13.875 "/></g></g></g><g fill="#000000" fill-opacity="1"><g transform="translate(105.846271, 53.299591)"><g><path d="M 28.953125 -14.421875 C 28.953125 -13.390625 28.882812 -12.457031 28.75 -11.625 L 7.734375 -11.625 C 7.898438 -9.425781 8.710938 -7.660156 10.171875 -6.328125 C 11.640625 -5.003906 13.441406 -4.34375 15.578125 -4.34375 C 18.628906 -4.34375 20.789062 -5.625 22.0625 -8.1875 L 28.203125 -8.1875 C 27.367188 -5.65625 25.859375 -3.582031 23.671875 -1.96875 C 21.492188 -0.351562 18.796875 0.453125 15.578125 0.453125 C 12.941406 0.453125 10.582031 -0.132812 8.5 -1.3125 C 6.425781 -2.5 4.796875 -4.164062 3.609375 -6.3125 C 2.429688 -8.457031 1.84375 -10.945312 1.84375 -13.78125 C 1.84375 -16.601562 2.414062 -19.085938 3.5625 -21.234375 C 4.71875 -23.378906 6.332031 -25.035156 8.40625 -26.203125 C 10.488281 -27.367188 12.878906 -27.953125 15.578125 -27.953125 C 18.171875 -27.953125 20.476562 -27.382812 22.5 -26.25 C 24.53125 -25.113281 26.113281 -23.523438 27.25 -21.484375 C 28.382812 -19.441406 28.953125 -17.085938 28.953125 -14.421875 Z M 23 -16.21875 C 22.96875 -18.3125 22.21875 -19.988281 20.75 -21.25 C 19.289062 -22.519531 17.484375 -23.15625 15.328125 -23.15625 C 13.359375 -23.15625 11.675781 -22.53125 10.28125 -21.28125 C 8.882812 -20.03125 8.050781 -18.34375 7.78125 -16.21875 Z M 23 -16.21875 "/></g></g></g><g fill="#000000" fill-opacity="1"><g transform="translate(136.633519, 53.299591)"><g><path d="M 9.4375 -23.5 C 10.269531 -24.90625 11.375 -26 12.75 -26.78125 C 14.132812 -27.5625 15.773438 -27.953125 17.671875 -27.953125 L 17.671875 -22.0625 L 16.21875 -22.0625 C 13.988281 -22.0625 12.300781 -21.492188 11.15625 -20.359375 C 10.007812 -19.234375 9.4375 -17.269531 9.4375 -14.46875 L 9.4375 0 L 3.75 0 L 3.75 -27.5 L 9.4375 -27.5 Z M 9.4375 -23.5 "/></g></g></g><g fill="#000000" fill-opacity="1"><g transform="translate(203.625072, 53.299591)"><g><path d="M 6.640625 -31.140625 C 5.609375 -31.140625 4.742188 -31.488281 4.046875 -32.1875 C 3.347656 -32.882812 3 -33.75 3 -34.78125 C 3 -35.8125 3.347656 -36.675781 4.046875 -37.375 C 4.742188 -38.070312 5.609375 -38.421875 6.640625 -38.421875 C 7.640625 -38.421875 8.488281 -38.070312 9.1875 -37.375 C 9.882812 -36.675781 10.234375 -35.8125 10.234375 -34.78125 C 10.234375 -33.75 9.882812 -32.882812 9.1875 -32.1875 C 8.488281 -31.488281 7.640625 -31.140625 6.640625 -31.140625 Z M 9.4375 -27.5 L 9.4375 0 L 3.75 0 L 3.75 -27.5 Z M 9.4375 -27.5 "/></g></g></g><g fill="#000000" fill-opacity="1"><g transform="translate(216.798221, 53.299591)"><g><path d="M 1.84375 -13.875 C 1.84375 -16.632812 2.414062 -19.078125 3.5625 -21.203125 C 4.71875 -23.335938 6.285156 -24.992188 8.265625 -26.171875 C 10.242188 -27.359375 12.445312 -27.953125 14.875 -27.953125 C 16.664062 -27.953125 18.4375 -27.5625 20.1875 -26.78125 C 21.9375 -26 23.328125 -24.957031 24.359375 -23.65625 L 24.359375 -36.9375 L 30.09375 -36.9375 L 30.09375 0 L 24.359375 0 L 24.359375 -4.140625 C 23.421875 -2.804688 22.128906 -1.707031 20.484375 -0.84375 C 18.835938 0.0195312 16.953125 0.453125 14.828125 0.453125 C 12.429688 0.453125 10.242188 -0.148438 8.265625 -1.359375 C 6.285156 -2.578125 4.71875 -4.273438 3.5625 -6.453125 C 2.414062 -8.640625 1.84375 -11.113281 1.84375 -13.875 Z M 24.359375 -13.78125 C 24.359375 -15.675781 23.96875 -17.320312 23.1875 -18.71875 C 22.40625 -20.113281 21.378906 -21.175781 20.109375 -21.90625 C 18.847656 -22.632812 17.484375 -23 16.015625 -23 C 14.554688 -23 13.191406 -22.640625 11.921875 -21.921875 C 10.660156 -21.210938 9.640625 -20.164062 8.859375 -18.78125 C 8.078125 -17.40625 7.6875 -15.769531 7.6875 -13.875 C 7.6875 -11.976562 8.078125 -10.3125 8.859375 -8.875 C 9.640625 -7.445312 10.671875 -6.359375 11.953125 -5.609375 C 13.234375 -4.859375 14.585938 -4.484375 16.015625 -4.484375 C 17.484375 -4.484375 18.847656 -4.847656 20.109375 -5.578125 C 21.378906 -6.316406 22.40625 -7.390625 23.1875 -8.796875 C 23.96875 -10.210938 24.359375 -11.875 24.359375 -13.78125 Z M 24.359375 -13.78125 "/></g></g></g><g fill="#000000" fill-opacity="1"><g transform="translate(250.629275, 53.299591)"><g><path d="M 28.953125 -14.421875 C 28.953125 -13.390625 28.882812 -12.457031 28.75 -11.625 L 7.734375 -11.625 C 7.898438 -9.425781 8.710938 -7.660156 10.171875 -6.328125 C 11.640625 -5.003906 13.441406 -4.34375 15.578125 -4.34375 C 18.628906 -4.34375 20.789062 -5.625 22.0625 -8.1875 L 28.203125 -8.1875 C 27.367188 -5.65625 25.859375 -3.582031 23.671875 -1.96875 C 21.492188 -0.351562 18.796875 0.453125 15.578125 0.453125 C 12.941406 0.453125 10.582031 -0.132812 8.5 -1.3125 C 6.425781 -2.5 4.796875 -4.164062 3.609375 -6.3125 C 2.429688 -8.457031 1.84375 -10.945312 1.84375 -13.78125 C 1.84375 -16.601562 2.414062 -19.085938 3.5625 -21.234375 C 4.71875 -23.378906 6.332031 -25.035156 8.40625 -26.203125 C 10.488281 -27.367188 12.878906 -27.953125 15.578125 -27.953125 C 18.171875 -27.953125 20.476562 -27.382812 22.5 -26.25 C 24.53125 -25.113281 26.113281 -23.523438 27.25 -21.484375 C 28.382812 -19.441406 28.953125 -17.085938 28.953125 -14.421875 Z M 23 -16.21875 C 22.96875 -18.3125 22.21875 -19.988281 20.75 -21.25 C 19.289062 -22.519531 17.484375 -23.15625 15.328125 -23.15625 C 13.359375 -23.15625 11.675781 -22.53125 10.28125 -21.28125 C 8.882812 -20.03125 8.050781 -18.34375 7.78125 -16.21875 Z M 23 -16.21875 "/></g></g></g><g fill="#000000" fill-opacity="1"><g transform="translate(281.416523, 53.299591)"><g><path d="M 9.4375 -23.5 C 10.269531 -24.90625 11.375 -26 12.75 -26.78125 C 14.132812 -27.5625 15.773438 -27.953125 17.671875 -27.953125 L 17.671875 -22.0625 L 16.21875 -22.0625 C 13.988281 -22.0625 12.300781 -21.492188 11.15625 -20.359375 C 10.007812 -19.234375 9.4375 -17.269531 9.4375 -14.46875 L 9.4375 0 L 3.75 0 L 3.75 -27.5 L 9.4375 -27.5 Z M 9.4375 -23.5 "/></g></g></g><path stroke-linecap="butt" transform="matrix(1.169779, 0, 0, 1.169779, 160.769201, 25.809789)" fill="none" stroke-linejoin="miter" d="M 31.853927 -0.00102209 L 31.853927 16.147864 C 31.853927 18.986275 29.553145 21.287057 26.714734 21.287057 C 23.879663 21.287057 21.578881 18.986275 21.578881 16.147864 L 21.578881 6.891307 C 21.578881 4.473649 19.618708 2.513476 17.20105 2.513476 C 14.783392 2.513476 12.826559 4.473649 12.826559 6.891307 L 12.826559 16.124489 C 12.826559 17.493605 12.282252 18.805952 11.313853 19.774351 C 10.345454 20.74275 9.033106 21.287057 7.663991 21.287057 C 6.294875 21.287057 4.979188 20.74275 4.01079 19.774351 C 3.042391 18.805952 2.501423 17.493605 2.501423 16.124489 L 2.501423 -0.00102209 " stroke="#da7800" stroke-width="5" stroke-opacity="1" stroke-miterlimit="4"/></svg>